<svg width="28" height="30" viewBox="0 0 28 30" fill="none" xmlns="http://www.w3.org/2000/svg">
<path d="M0.617537 1.64249C0.2955 1.97118 0.109131 2.48291 0.109131 3.14562V26.7841C0.109131 27.4468 0.2955 27.9585 0.617537 28.2872L0.697019 28.3594L14.2829 15.1185V14.8059L0.697019 1.565L0.617537 1.64249Z" fill="#0F1418"/>
<path d="M20.4508 19.5352L15.9272 15.1193V14.8067L20.4563 10.3908L20.5577 10.4483L25.9214 13.4238C27.4521 14.2682 27.4521 15.6578 25.9214 16.5075L20.5577 19.4777L20.4508 19.5352V19.5352Z" fill="#0F1418"/>
<path d="M19.7358 20.2993L15.1053 15.7845L1.43994 29.1096C1.94835 29.6307 2.77742 29.6935 3.72024 29.1724L19.7358 20.2993" fill="#0F1418"/>
<path d="M19.7358 9.62493L3.72024 0.751818C2.77742 0.23608 1.94835 0.298875 1.43994 0.819958L15.1053 14.1396L19.7358 9.62493Z" fill="#0F1418"/>
</svg>
