<svg width="23" height="28" viewBox="0 0 23 28" fill="none" xmlns="http://www.w3.org/2000/svg">
<path d="M19.0292 15.1461C18.9974 11.7011 21.9223 10.0251 22.0561 9.94707C20.3995 7.59231 17.832 7.27057 16.9298 7.24492C14.7734 7.02366 12.6816 8.503 11.5831 8.503C10.4627 8.503 8.77113 7.2663 6.94799 7.30264C4.60192 7.33791 2.40713 8.66227 1.2034 10.7188C-1.28081 14.9121 0.571935 21.0742 2.95199 24.4636C4.14257 26.1236 5.53377 27.9771 7.35472 27.9119C9.1362 27.8403 9.80165 26.8045 11.9515 26.8045C14.0816 26.8045 14.7065 27.9119 16.5636 27.8702C18.4755 27.8403 19.6793 26.2027 20.8282 24.5278C22.2041 22.6252 22.7566 20.7514 22.7785 20.6552C22.7336 20.6402 19.0654 19.2753 19.0292 15.1461Z" fill="#0F1418"/>
<path d="M15.521 5.01522C16.4792 3.84692 17.1348 2.25748 16.9528 0.644531C15.566 0.704389 13.8316 1.57981 12.8329 2.72245C11.9493 3.72934 11.16 5.37971 11.3639 6.93174C12.9217 7.04504 14.5212 6.16534 15.521 5.01522Z" fill="#0F1418"/>
</svg>
