<svg width="307" height="91" viewBox="0 0 307 91" fill="none" xmlns="http://www.w3.org/2000/svg">
<path d="M3.03409 78V43.0909H10.2955V56.2159H10.517C10.8352 55.5114 11.2955 54.7955 11.8977 54.0682C12.5114 53.3295 13.3068 52.7159 14.2841 52.2273C15.2727 51.7273 16.5 51.4773 17.9659 51.4773C19.875 51.4773 21.6364 51.9773 23.25 52.9773C24.8636 53.9659 26.1534 55.4602 27.1193 57.4602C28.0852 59.4489 28.5682 61.9432 28.5682 64.9432C28.5682 67.8636 28.0966 70.3295 27.1534 72.3409C26.2216 74.3409 24.9489 75.858 23.3352 76.892C21.733 77.9148 19.9375 78.4261 17.9489 78.4261C16.5398 78.4261 15.3409 78.1932 14.3523 77.7273C13.375 77.2614 12.5739 76.6761 11.9489 75.9716C11.3239 75.2557 10.8466 74.5341 10.517 73.8068H10.1932V78H3.03409ZM10.142 64.9091C10.142 66.4659 10.358 67.8239 10.7898 68.983C11.2216 70.142 11.8466 71.0455 12.6648 71.6932C13.483 72.3295 14.4773 72.6477 15.6477 72.6477C16.8295 72.6477 17.8295 72.3239 18.6477 71.6761C19.4659 71.017 20.0852 70.108 20.5057 68.9489C20.9375 67.7784 21.1534 66.4318 21.1534 64.9091C21.1534 63.3977 20.9432 62.0682 20.5227 60.9205C20.1023 59.7727 19.483 58.875 18.6648 58.2273C17.8466 57.5795 16.8409 57.2557 15.6477 57.2557C14.4659 57.2557 13.4659 57.5682 12.6477 58.1932C11.8409 58.8182 11.2216 59.7045 10.7898 60.8523C10.358 62 10.142 63.3523 10.142 64.9091ZM47.1629 78.5114C44.5152 78.5114 42.2254 77.9489 40.2936 76.8239C38.3731 75.6875 36.8902 74.108 35.8447 72.0852C34.7993 70.0511 34.2765 67.6932 34.2765 65.0114C34.2765 62.3068 34.7993 59.9432 35.8447 57.9205C36.8902 55.8864 38.3731 54.3068 40.2936 53.1818C42.2254 52.0455 44.5152 51.4773 47.1629 51.4773C49.8106 51.4773 52.0947 52.0455 54.0152 53.1818C55.947 54.3068 57.4356 55.8864 58.4811 57.9205C59.5265 59.9432 60.0493 62.3068 60.0493 65.0114C60.0493 67.6932 59.5265 70.0511 58.4811 72.0852C57.4356 74.108 55.947 75.6875 54.0152 76.8239C52.0947 77.9489 49.8106 78.5114 47.1629 78.5114ZM47.197 72.8864C48.4015 72.8864 49.4072 72.5455 50.214 71.8636C51.0209 71.1705 51.6288 70.2273 52.0379 69.0341C52.4584 67.8409 52.6686 66.483 52.6686 64.9602C52.6686 63.4375 52.4584 62.0795 52.0379 60.8864C51.6288 59.6932 51.0209 58.75 50.214 58.0568C49.4072 57.3636 48.4015 57.017 47.197 57.017C45.9811 57.017 44.9584 57.3636 44.1288 58.0568C43.3106 58.75 42.6913 59.6932 42.2709 60.8864C41.8618 62.0795 41.6572 63.4375 41.6572 64.9602C41.6572 66.483 41.8618 67.8409 42.2709 69.0341C42.6913 70.2273 43.3106 71.1705 44.1288 71.8636C44.9584 72.5455 45.9811 72.8864 47.197 72.8864ZM71.1994 78L64.0744 51.8182H71.421L75.4778 69.4091H75.7164L79.9437 51.8182H87.1539L91.4494 69.3068H91.671L95.6596 51.8182H102.989L95.8812 78H88.1937L83.6937 61.5341H83.3698L78.8698 78H71.1994Z" fill="black"/>
<path d="M130.75 3.75L129.768 2.76777C128.636 1.63588 127.101 1 125.5 1C123.899 1 122.364 1.63589 121.232 2.76777L120.25 3.75C118.489 5.5108 117.5 7.89895 117.5 10.3891V11.4629C117.5 12.4835 117.63 13.4998 117.888 14.4873L120.5 24.5H125.5H130.5L133.112 14.4873C133.37 13.4998 133.5 12.4835 133.5 11.4629V10.3891C133.5 7.89895 132.511 5.51079 130.75 3.75Z" fill="black" stroke="black"/>
<path d="M131.5 32.5H120L120.905 28.8787C120.961 28.6561 121.161 28.5 121.39 28.5H130.11C130.339 28.5 130.539 28.6561 130.595 28.8787L131.5 32.5Z" fill="black" stroke="black"/>
<path d="M118.508 37.2847C118.804 36.5109 119.547 36 120.376 36H131.068C131.924 36 132.686 36.545 132.961 37.3555L138.83 54.5958C139.936 57.8432 140.5 61.2502 140.5 64.6806C140.5 68.8514 139.666 72.9802 138.048 76.8242L132.629 89.694C132.551 89.8794 132.369 90 132.168 90H119.316C119.123 90 118.947 89.8887 118.865 89.714L112.701 76.7028C110.923 72.9478 110 68.8447 110 64.6898C110 61.259 110.629 57.8573 111.856 54.6535L118.508 37.2847Z" fill="black" stroke="black"/>
<path d="M161.33 78.5114C158.636 78.5114 156.318 77.9659 154.375 76.875C152.443 75.7727 150.955 74.2159 149.909 72.2045C148.864 70.1818 148.341 67.7898 148.341 65.0284C148.341 62.3352 148.864 59.9716 149.909 57.9375C150.955 55.9034 152.426 54.3182 154.324 53.1818C156.233 52.0455 158.472 51.4773 161.04 51.4773C162.767 51.4773 164.375 51.7557 165.864 52.3125C167.364 52.858 168.67 53.6818 169.784 54.7841C170.909 55.8864 171.784 57.2727 172.409 58.9432C173.034 60.6023 173.347 62.5455 173.347 64.7727V66.767H151.239V62.267H166.511C166.511 61.2216 166.284 60.2955 165.83 59.4886C165.375 58.6818 164.744 58.0511 163.938 57.5966C163.142 57.1307 162.216 56.8977 161.159 56.8977C160.057 56.8977 159.08 57.1534 158.227 57.6648C157.386 58.1648 156.727 58.8409 156.25 59.6932C155.773 60.5341 155.528 61.4716 155.517 62.5057V66.7841C155.517 68.0795 155.756 69.1989 156.233 70.142C156.722 71.0852 157.409 71.8125 158.295 72.3239C159.182 72.8352 160.233 73.0909 161.449 73.0909C162.256 73.0909 162.994 72.9773 163.665 72.75C164.335 72.5227 164.909 72.1818 165.386 71.7273C165.864 71.2727 166.227 70.7159 166.477 70.0568L173.193 70.5C172.852 72.1136 172.153 73.5227 171.097 74.7273C170.051 75.9205 168.699 76.8523 167.04 77.5227C165.392 78.1818 163.489 78.5114 161.33 78.5114ZM184.645 51.8182L189.451 60.9716L194.378 51.8182H201.826L194.241 64.9091L202.031 78H194.616L189.451 68.9489L184.372 78H176.872L184.645 64.9091L177.145 51.8182H184.645ZM207.099 87.8182V51.8182H214.258V56.2159H214.582C214.9 55.5114 215.36 54.7955 215.963 54.0682C216.576 53.3295 217.372 52.7159 218.349 52.2273C219.338 51.7273 220.565 51.4773 222.031 51.4773C223.94 51.4773 225.701 51.9773 227.315 52.9773C228.929 53.9659 230.218 55.4602 231.184 57.4602C232.15 59.4489 232.633 61.9432 232.633 64.9432C232.633 67.8636 232.161 70.3295 231.218 72.3409C230.286 74.3409 229.014 75.858 227.4 76.892C225.798 77.9148 224.002 78.4261 222.014 78.4261C220.605 78.4261 219.406 78.1932 218.417 77.7273C217.44 77.2614 216.639 76.6761 216.014 75.9716C215.389 75.2557 214.911 74.5341 214.582 73.8068H214.36V87.8182H207.099ZM214.207 64.9091C214.207 66.4659 214.423 67.8239 214.855 68.983C215.286 70.142 215.911 71.0455 216.73 71.6932C217.548 72.3295 218.542 72.6477 219.713 72.6477C220.894 72.6477 221.894 72.3239 222.713 71.6761C223.531 71.017 224.15 70.108 224.571 68.9489C225.002 67.7784 225.218 66.4318 225.218 64.9091C225.218 63.3977 225.008 62.0682 224.588 60.9205C224.167 59.7727 223.548 58.875 222.73 58.2273C221.911 57.5795 220.906 57.2557 219.713 57.2557C218.531 57.2557 217.531 57.5682 216.713 58.1932C215.906 58.8182 215.286 59.7045 214.855 60.8523C214.423 62 214.207 63.3523 214.207 64.9091ZM250.366 78.5114C247.673 78.5114 245.354 77.9659 243.411 76.875C241.479 75.7727 239.991 74.2159 238.945 72.2045C237.9 70.1818 237.377 67.7898 237.377 65.0284C237.377 62.3352 237.9 59.9716 238.945 57.9375C239.991 55.9034 241.462 54.3182 243.36 53.1818C245.269 52.0455 247.508 51.4773 250.076 51.4773C251.803 51.4773 253.411 51.7557 254.9 52.3125C256.4 52.858 257.707 53.6818 258.82 54.7841C259.945 55.8864 260.82 57.2727 261.445 58.9432C262.07 60.6023 262.383 62.5455 262.383 64.7727V66.767H240.275V62.267H255.548C255.548 61.2216 255.32 60.2955 254.866 59.4886C254.411 58.6818 253.781 58.0511 252.974 57.5966C252.178 57.1307 251.252 56.8977 250.195 56.8977C249.093 56.8977 248.116 57.1534 247.264 57.6648C246.423 58.1648 245.764 58.8409 245.286 59.6932C244.809 60.5341 244.565 61.4716 244.553 62.5057V66.7841C244.553 68.0795 244.792 69.1989 245.269 70.142C245.758 71.0852 246.445 71.8125 247.332 72.3239C248.218 72.8352 249.269 73.0909 250.485 73.0909C251.292 73.0909 252.031 72.9773 252.701 72.75C253.371 72.5227 253.945 72.1818 254.423 71.7273C254.9 71.2727 255.264 70.7159 255.514 70.0568L262.229 70.5C261.889 72.1136 261.19 73.5227 260.133 74.7273C259.087 75.9205 257.735 76.8523 256.076 77.5227C254.428 78.1818 252.525 78.5114 250.366 78.5114ZM268.081 78V51.8182H275.121V56.3864H275.394C275.871 54.7614 276.672 53.5341 277.797 52.7045C278.922 51.8636 280.218 51.4432 281.684 51.4432C282.047 51.4432 282.439 51.4659 282.86 51.5114C283.28 51.5568 283.65 51.6193 283.968 51.6989V58.142C283.627 58.0398 283.155 57.9489 282.553 57.8693C281.951 57.7898 281.4 57.75 280.9 57.75C279.831 57.75 278.877 57.983 278.036 58.4489C277.206 58.9034 276.547 59.5398 276.059 60.358C275.581 61.1761 275.343 62.1193 275.343 63.1875V78H268.081ZM303.921 51.8182V57.2727H288.154V51.8182H303.921ZM291.733 45.5455H298.995V69.9545C298.995 70.625 299.097 71.1477 299.301 71.5227C299.506 71.8864 299.79 72.142 300.154 72.2898C300.529 72.4375 300.961 72.5114 301.449 72.5114C301.79 72.5114 302.131 72.483 302.472 72.4261C302.813 72.358 303.074 72.3068 303.256 72.2727L304.398 77.6761C304.034 77.7898 303.523 77.9205 302.864 78.0682C302.205 78.2273 301.404 78.3239 300.461 78.358C298.711 78.4261 297.176 78.1932 295.858 77.6591C294.551 77.125 293.534 76.2955 292.807 75.1705C292.08 74.0455 291.722 72.625 291.733 70.9091V45.5455Z" fill="black"/>
</svg>
